<svg width="40" height="40" viewBox="0 0 40 40" fill="none" xmlns="http://www.w3.org/2000/svg">
<path d="M6.99967 30.6667H33.6663C34.583 30.6667 35.333 29.9167 35.333 29.0001C35.333 28.0834 34.583 27.3334 33.6663 27.3334H6.99967C6.08301 27.3334 5.33301 28.0834 5.33301 29.0001C5.33301 29.9167 6.08301 30.6667 6.99967 30.6667ZM6.99967 22.3334H33.6663C34.583 22.3334 35.333 21.5834 35.333 20.6667C35.333 19.7501 34.583 19.0001 33.6663 19.0001H6.99967C6.08301 19.0001 5.33301 19.7501 5.33301 20.6667C5.33301 21.5834 6.08301 22.3334 6.99967 22.3334ZM5.33301 12.3334C5.33301 13.2501 6.08301 14.0001 6.99967 14.0001H33.6663C34.583 14.0001 35.333 13.2501 35.333 12.3334C35.333 11.4167 34.583 10.6667 33.6663 10.6667H6.99967C6.08301 10.6667 5.33301 11.4167 5.33301 12.3334Z" fill="#6B00FF"/>
</svg>
